<?xml version="1.0" standalone="no"?>
<!DOCTYPE svg PUBLIC "-//W3C//DTD SVG 20010904//EN"
 "http://www.w3.org/TR/2001/REC-SVG-20010904/DTD/svg10.dtd">
<svg version="1.0" xmlns="http://www.w3.org/2000/svg"
 width="512.000000pt" height="512.000000pt" viewBox="0 0 512.000000 512.000000"
 preserveAspectRatio="xMidYMid meet">

<g transform="translate(0.000000,512.000000) scale(0.100000,-0.100000)"
fill="#000000" stroke="none">
<path d="M2060 4849 c-195 -32 -645 -106 -1000 -164 -355 -58 -664 -112 -687
-121 -50 -18 -126 -97 -156 -162 -20 -43 -22 -66 -25 -284 -5 -342 5 -367 197
-487 l94 -59 -2 -320 c-2 -205 2 -335 9 -361 21 -80 63 -118 282 -256 114 -71
206 -133 205 -137 -1 -4 -218 -159 -482 -345 -366 -258 -482 -345 -489 -366
-7 -19 -6 -41 2 -70 62 -209 84 -319 89 -428 6 -129 -4 -194 -64 -417 -39
-147 -37 -180 15 -201 36 -14 2533 -461 2578 -461 53 0 90 20 241 127 131 95
963 682 1462 1033 150 106 242 178 257 200 39 58 54 117 61 236 3 63 8 114 10
114 36 0 397 64 420 75 46 21 50 50 19 158 -38 132 -66 305 -66 410 0 99 21
203 64 323 14 39 26 79 26 88 0 44 -33 74 -182 167 -84 53 -234 148 -333 211
-99 63 -279 176 -400 253 -121 76 -222 140 -225 142 -2 2 4 25 14 51 34 87 30
142 -12 168 -9 6 -192 123 -407 259 -1080 685 -1080 685 -1121 684 -22 -1
-199 -28 -394 -60z m1722 -1161 c-31 -120 -27 -260 11 -388 14 -47 24 -87 22
-88 -7 -7 -1960 -320 -1967 -315 -5 2 -8 123 -8 267 0 238 2 266 18 286 16 20
100 35 962 175 520 84 954 153 966 154 20 1 20 1 -4 -91z m584 -385 c232 -148
419 -271 416 -274 -4 -3 -470 -81 -1037 -173 -566 -92 -1065 -173 -1107 -180
l-77 -13 -105 66 c-99 62 -104 66 -78 73 15 4 380 64 812 133 l785 126 28 30
c15 16 27 37 27 45 0 9 -16 56 -36 105 -19 49 -42 120 -49 157 -15 69 -20 172
-9 172 4 0 197 -120 430 -267z m544 -436 c0 -2 -9 -39 -20 -83 -41 -157 -34
-354 19 -576 10 -43 17 -78 14 -78 -2 0 -436 -70 -966 -155 -529 -85 -1079
-174 -1221 -197 -250 -40 -259 -41 -272 -23 -11 15 -14 84 -14 329 0 276 2
315 18 346 9 19 28 40 42 47 14 7 367 67 785 134 418 66 947 151 1175 189 445
73 440 72 440 67z m-3353 -735 c760 -488 846 -542 882 -553 29 -8 75 -4 235
21 109 17 200 29 202 27 6 -6 -294 -218 -315 -224 -9 -2 -389 64 -846 147
-456 83 -958 173 -1115 201 -157 29 -288 54 -291 58 -5 5 816 591 827 591 2 0
191 -121 421 -268z m2921 -329 c-3 -49 -10 -100 -16 -115 -12 -28 -11 -28
-842 -613 -272 -192 -558 -393 -635 -448 l-140 -99 -5 318 c-6 345 -10 367
-66 442 -15 18 -22 37 -18 41 5 4 124 88 264 187 l255 179 595 97 c327 53 599
97 604 97 5 1 6 -38 4 -86z m-3318 -323 c498 -88 1026 -182 1173 -209 295 -54
307 -59 328 -130 14 -50 8 -746 -7 -761 -10 -10 -106 5 -989 165 -183 33
-1243 223 -1393 249 -40 7 -74 15 -76 17 -3 2 9 58 25 124 60 246 61 383 5
618 l-23 98 26 -5 c14 -4 433 -78 931 -166z"/>
</g>
</svg>
